<svg xmlns="http://www.w3.org/2000/svg" preserveAspectRatio="xMidYMid meet" style="display: block;" version="1.1" viewBox="0 0 2048 2048">

<path d="M 860.49 816.139 C 875.632 815.434 897.366 816.263 913.332 816.235 L 1026.42 816.168 L 1126.82 816.153 C 1139.69 816.127 1178.59 815 1192.54 817.671 C 1195.45 818.227 1203.81 833.739 1207.73 838.037 C 1215.19 846.206 1224.7 851.356 1232.6 858.986 C 1235.04 861.351 1235.66 864.43 1235.75 867.696 C 1236.14 882.223 1236 897.155 1236.01 911.674 L 1236.03 995.904 L 1236.03 1115.47 C 1236.01 1138.62 1236.49 1163.97 1235.46 1186.87 L 1234.77 1187.63 C 1228 1195.15 1217.79 1198.85 1210.09 1206.32 C 1201.73 1214.43 1199.51 1226.77 1188.95 1230.96 C 1178.27 1231.34 1167.35 1231.44 1156.65 1231.4 C 1060.54 1230.96 964.447 1231.2 868.338 1231.26 C 850.625 1231.28 851.774 1219.51 841.748 1208.55 C 834.566 1200.7 823.947 1195.25 815.641 1188.27 C 813.807 1176.16 814.723 1149.91 814.687 1136.99 C 814.475 1102.05 814.44 1067.12 814.584 1032.18 L 814.106 918.052 C 814.101 902.682 813.394 874.274 815.336 860.088 C 822.373 853.098 833.483 848.748 840.741 841.143 C 848.8 832.697 850.654 822.305 860.49 816.139 z M 817.006 861.544 L 817.133 1099.3 C 817.092 1125.61 816.347 1158.99 817.637 1185.62 C 817.841 1189.83 828.611 1194.87 832.75 1197.18 C 844.326 1203.67 851.917 1223.61 860.96 1229.32 C 867.047 1230.19 876.44 1230.09 882.526 1229.18 C 951.513 1227.18 1028.9 1228.79 1098.49 1228.9 L 1155.09 1228.99 C 1165.36 1229 1176.55 1229.23 1186.8 1228.36 C 1197.98 1227.42 1197.37 1213.75 1208.43 1204.76 C 1216.24 1198.4 1227.55 1192.13 1233.03 1184.86 C 1233.35 1155.17 1234.4 867.092 1232.09 862.239 C 1229.5 856.813 1219.61 854.079 1215.09 849.968 C 1206.23 841.901 1201.67 831.268 1193.69 822.844 C 1190.71 819.707 1187.58 819.467 1183.44 819.116 C 1173.03 818.235 1162.01 818.958 1151.54 819.041 L 1097.76 819.129 L 940.474 819.126 C 914.214 819.148 885.191 819.862 859.167 819.11 C 852.494 827.213 848.335 838.054 840.274 845.076 C 833.013 851.401 824.195 855.029 817.006 861.544 z" fill="currentColor" transform="translate(0,0)"></path>

<path d="M 860.96 1229.32 C 867.916 1228.82 875.55 1228.93 882.526 1229.18 C 876.44 1230.09 867.047 1230.19 860.96 1229.32 z" fill="currentColor" transform="translate(0,0)"></path>
<path d="M 860.25 823.909 L 1075.87 823.661 C 1112.13 823.622 1154.8 822.397 1190.57 823.903 C 1201.03 842.125 1208.74 854.41 1229.15 862.988 L 1229.23 1185.36 C 1208.82 1197.32 1201.71 1201.86 1190.44 1223.08 C 1186.06 1224.37 1184.71 1224.04 1179.97 1223.94 C 1110.43 1225.67 1035.36 1224.07 965.321 1224.09 L 895.53 1224.33 C 884.954 1224.37 873.652 1224.49 863.017 1224.11 C 859.649 1223.99 859.721 1222.86 857.828 1220.21 C 857.315 1219.31 856.803 1218.41 856.29 1217.5 C 852.713 1210.65 847.984 1205.19 842.257 1200.05 L 839.376 1198.26 C 836.146 1194.35 826.626 1189.25 821.265 1184.64 L 821.143 863.079 C 826.594 859.909 831.509 856.978 836.808 853.556 C 837.356 853 837.361 852.988 838.035 852.601 C 843.332 848.239 845.003 846.328 849.467 841.21 C 849.837 840.563 849.811 840.345 850.434 840.027 C 854.576 834.186 856.796 830.216 860.25 823.909 z M 1189.6 825.814 C 1164.49 824.863 1136.05 826.312 1110.4 825.911 C 1030.73 824.667 948.544 827.612 869.102 825.667 C 867.302 825.696 861.833 825.206 860.911 826.94 C 852.398 842.954 844.767 850.693 829.726 860.669 L 824.959 863.31 C 821.679 866.263 822.939 898.251 823.306 904.489 L 823.149 1093.35 L 823.173 1151.17 C 823.18 1159.47 822.787 1174.55 823.675 1182.52 C 826.474 1188.68 835.683 1191.5 841.33 1196.52 C 846.909 1200.83 849.053 1203.62 853.272 1209.04 C 854.5 1205.91 854.219 1205.76 856.957 1203.97 C 856.402 1205.84 856.275 1207.58 858.761 1206.71 C 862.992 1204.48 859.485 1204.29 856.957 1203.97 C 859.504 1199.84 859.486 1203.27 861.863 1197 C 863.911 1200.2 865.902 1204.44 867.665 1207.9 L 1182.22 1208.2 C 1185.72 1193.42 1200.63 1182.42 1213.36 1175.7 L 1213.06 873.451 C 1207.66 870.737 1203.63 867.432 1198.82 863.801 C 1203.09 862.25 1203.25 863.022 1207.63 863.266 C 1220.11 863.961 1209.79 857.86 1202.13 852.048 C 1200.71 848.6 1200.82 848.478 1200.43 844.68 C 1198.75 843.009 1198.48 842.332 1197.34 840.199 L 1189.6 825.814 z M 855.093 843.03 C 857.37 840.021 857.237 840.057 860.378 837.845 L 860.016 839.838 C 859.576 843.235 858.708 847.264 855.093 843.03 z" fill="currentColor" transform="translate(0,0)"></path>













<path d="M 1144.02 839.861 C 1154.5 840.903 1171.9 839.021 1181.45 840.908 C 1184.85 845.525 1187.9 850.536 1191.3 855.267 C 1193.71 858.992 1195.45 860.673 1198.82 863.801 C 1203.63 867.432 1207.66 870.737 1213.06 873.451 L 1213.36 1175.7 C 1200.63 1182.42 1185.72 1193.42 1182.22 1208.2 L 867.665 1207.9 C 865.902 1204.44 863.911 1200.2 861.863 1197 C 856.111 1189.59 852.727 1186.13 844.91 1180.84 C 844.577 1180.44 844.244 1180.04 843.911 1179.63 C 840.83 1178.34 839.776 1178.09 837.206 1175.85 C 836.171 1163.38 836.749 1148.91 836.858 1136.16 L 837.044 1080.88 L 837.065 888.373 L 837.023 883.509 C 837.028 879.525 836.725 876.001 837.664 872.176 L 837.022 871.696 C 837.824 861.367 837.552 865.595 845.812 859.206 C 847.232 857.415 849.278 855.307 850.413 853.734 C 853.954 850.171 854.054 850.207 856.763 846.134 C 860.4 847.136 860.253 847.021 862.754 849.946 C 864.94 846.605 865.584 843.672 868.247 839.681 C 872.122 841.035 987.031 840.514 998.64 839.925 C 1022.4 840.809 1059.41 840.677 1083.34 839.946 C 1101.96 840.853 1125.11 840.095 1144.02 839.861 z M 990.312 1007.91 C 992.082 1012.27 993.685 1016.71 995.117 1021.2 C 998.082 1029.32 1006.75 1049.09 1008.19 1056.22 C 1008.99 1057.86 1009.77 1059.51 1010.54 1061.16 C 1011.5 1063.87 1012.95 1068.47 1014.35 1070.73 C 1016.83 1076.87 1020.56 1087.02 1022.82 1093.39 C 1026.47 1085.83 1029.86 1079.2 1032.55 1071.09 L 1033.21 1069.2 C 1034.82 1066.54 1034.74 1066.21 1035.71 1063.29 C 1037.74 1058.26 1039.05 1055.76 1040.48 1050.28 C 1042.04 1047.16 1043.58 1042.28 1044.8 1038.86 C 1047.03 1033.66 1050.01 1026.23 1051.7 1021.01 C 1054.06 1017.22 1063.54 992.519 1065.7 987.087 L 1100.34 898.611 C 1107.65 898.327 1165.24 896.85 1166.39 897.77 C 1166.36 902.216 1167.05 900.423 1165.15 903.708 C 1161.82 904.822 1160.18 904.932 1156.77 905.373 C 1151.29 906.703 1146.85 909.243 1142.21 912.411 L 1141.34 913.353 C 1139.8 914.94 1138.13 916.411 1136.98 918.243 C 1134.11 925.002 1131.73 933.335 1131.53 940.767 C 1130.13 993.951 1130.69 1047.47 1131.25 1100.69 C 1131.31 1106.52 1133.44 1116.51 1136.74 1121.14 L 1137.26 1122.54 C 1144.34 1133.6 1154.82 1135.66 1167.14 1136.33 C 1166.83 1139.02 1167.06 1139.88 1165.82 1142.14 C 1162.27 1142.77 1135.8 1142.29 1129.81 1142.09 C 1109.25 1141.4 1085.17 1143.28 1065.23 1142.09 L 1064.44 1140.27 C 1071.99 1127.7 1097.69 1144 1099.21 1094.27 C 1099.11 1087.97 1099.36 1077.85 1098.89 1072.02 C 1100.49 1045.54 1098.76 1013.71 1099.34 986.663 C 1099.54 977.328 1099.64 942.089 1098.14 934.724 C 1098.85 932.865 1099.9 924.484 1098.46 923.732 C 1097.07 924.055 1093.87 934.894 1093.34 936.542 C 1078.36 976.95 1061.15 1017.32 1046.11 1058.32 C 1035.38 1084.74 1024.1 1111.09 1014.8 1138.04 C 1013.91 1140.62 1009.17 1139.5 1008.95 1138.98 C 1001.82 1121.74 995.207 1103.96 987.555 1086.71 L 986.752 1084.41 C 986.271 1083.03 985.782 1081.66 985.196 1080.31 L 984.727 1079.2 L 981.035 1069.5 L 980.62 1067.37 C 979.721 1065.84 977.566 1060.61 976.739 1058.73 C 975.339 1054.27 973.768 1050.89 971.877 1046.67 L 971.835 1045.75 C 971.068 1043.71 970.229 1041.7 969.32 1039.73 C 967.189 1034.01 965.029 1028.31 962.465 1022.77 C 960.114 1014.99 957.83 1010.08 955.258 1002.85 C 952.959 997.764 951.358 991.8 948.63 986.845 C 944.925 976.703 935.575 950.057 931.032 941.796 L 929.581 937.484 C 920.236 935.443 923.294 937.944 922.239 926.618 C 921.807 956.208 921.645 989.447 922.258 1018.99 C 921.84 1041.32 919.35 1098.91 927.791 1117.23 L 928.6 1119.39 C 942.036 1139.68 944.477 1131.28 960.891 1138.01 C 960.027 1144.87 950.64 1141.96 943.652 1142.22 C 921.586 1141.33 899.388 1143.15 878.652 1142.69 C 876.913 1141.25 876.819 1140.12 876.984 1138.15 C 879.097 1136.19 882.122 1135.94 885.006 1135.71 C 901.365 1134.46 910.271 1118.37 912.247 1103.51 C 913.7 1092.59 913.209 1078.62 913.237 1067.05 L 913.134 1005.75 C 913.068 983.931 914.189 954.501 911.817 933.615 C 907.972 917.618 901.311 907.934 884.395 905.758 C 880.842 905.301 877.914 904.673 875.336 902.649 L 876.596 898.731 C 896.949 897.968 927.774 897.544 948.04 898.505 C 949.002 901.214 950.283 905.17 951.411 907.683 C 953.144 911.876 954.128 914.79 956.174 918.947 C 957.939 924.642 960.89 930.716 962.939 936.979 L 965.551 944.862 L 966.273 945.663 C 966.635 946.38 966.997 947.097 967.359 947.814 C 968.684 951.984 969.679 954.313 971.235 958.272 C 971.705 959.685 971.935 960.375 972.52 961.714 C 977.788 973.289 983.751 989.838 988.313 1002.03 C 989.05 1004.77 989.062 1005.31 990.312 1007.91 z M 868.984 1205.1 C 910.939 1206.42 958.324 1205.23 1000.76 1205.26 L 1179.56 1205.99 C 1187.65 1191.45 1192.49 1187 1205.58 1176.54 L 1207.36 1171.37 C 1213.87 1152.66 1208.77 1099.61 1209.19 1078.5 C 1210.11 1031.64 1210.01 983.962 1208.74 937.059 C 1208.21 917.19 1208.61 892.952 1206.31 873.513 C 1192.75 862.508 1188.67 857.894 1179.52 843.1 L 967.416 842.871 C 949.076 843.008 930.735 843.006 912.394 842.867 C 901.701 842.802 891.083 842.713 880.385 842.879 C 872.431 843.003 867.424 847.407 863.143 854.046 C 861.165 857.194 859.801 858.846 857.422 861.697 L 855.902 863.505 L 855.275 863.783 L 854.513 864.55 C 849.603 868.179 844.799 871.934 839.494 874.946 L 839.931 961.882 C 839.938 970.318 839.28 998.531 840.14 1005.65 C 839.827 1014.7 839.746 1025.74 840.043 1034.84 C 838.592 1076.11 839.921 1117.75 839.461 1159.05 C 839.407 1163.87 839.657 1169 839.428 1173.78 C 843.67 1168.66 845.09 1176.68 846.288 1179.04 C 848.561 1180.44 850.805 1181.9 853.016 1183.4 C 855.275 1185.4 858.364 1188.63 860.209 1191 C 864.589 1196.83 865.867 1198.53 868.984 1205.1 z M 945.242 985.255 L 947.649 987.597 C 946.671 990.059 946.012 991.078 944.697 993.364 C 944.826 990.657 945.008 987.954 945.242 985.255 z" fill="currentColor" transform="translate(0,0)"></path>


<path d="M 1100.34 898.611 C 1107.65 898.327 1165.24 896.85 1166.39 897.77 C 1166.36 902.216 1167.05 900.423 1165.15 903.708 C 1161.82 904.822 1160.18 904.932 1156.77 905.373 C 1151.29 906.703 1146.85 909.243 1142.21 912.411 L 1141.34 913.353 C 1139.8 914.94 1138.13 916.411 1136.98 918.243 C 1134.11 925.002 1131.73 933.335 1131.53 940.767 C 1130.13 993.951 1130.69 1047.47 1131.25 1100.69 C 1131.31 1106.52 1133.44 1116.51 1136.74 1121.14 L 1137.26 1122.54 C 1144.34 1133.6 1154.82 1135.66 1167.14 1136.33 C 1166.83 1139.02 1167.06 1139.88 1165.82 1142.14 C 1162.27 1142.77 1135.8 1142.29 1129.81 1142.09 C 1109.25 1141.4 1085.17 1143.28 1065.23 1142.09 L 1064.44 1140.27 C 1071.99 1127.7 1097.69 1144 1099.21 1094.27 C 1099.11 1087.97 1099.36 1077.85 1098.89 1072.02 C 1100.49 1045.54 1098.76 1013.71 1099.34 986.663 C 1099.54 977.328 1099.64 942.089 1098.14 934.724 C 1098.85 932.865 1099.9 924.484 1098.46 923.732 C 1097.07 924.055 1093.87 934.894 1093.34 936.542 C 1078.36 976.95 1061.15 1017.32 1046.11 1058.32 C 1035.38 1084.74 1024.1 1111.09 1014.8 1138.04 C 1013.91 1140.62 1009.17 1139.5 1008.95 1138.98 C 1001.82 1121.74 995.207 1103.96 987.555 1086.71 L 986.752 1084.41 C 986.271 1083.03 985.782 1081.66 985.196 1080.31 L 984.727 1079.2 L 981.035 1069.5 L 980.62 1067.37 C 979.721 1065.84 977.566 1060.61 976.739 1058.73 C 975.339 1054.27 973.768 1050.89 971.877 1046.67 L 971.835 1045.75 C 971.068 1043.71 970.229 1041.7 969.32 1039.73 C 967.189 1034.01 965.029 1028.31 962.465 1022.77 C 960.114 1014.99 957.83 1010.08 955.258 1002.85 C 952.959 997.764 951.358 991.8 948.63 986.845 C 944.925 976.703 935.575 950.057 931.032 941.796 L 929.581 937.484 C 920.236 935.443 923.294 937.944 922.239 926.618 C 921.807 956.208 921.645 989.447 922.258 1018.99 C 921.84 1041.32 919.35 1098.91 927.791 1117.23 L 928.6 1119.39 C 942.036 1139.68 944.477 1131.28 960.891 1138.01 C 960.027 1144.87 950.64 1141.96 943.652 1142.22 C 921.586 1141.33 899.388 1143.15 878.652 1142.69 C 876.913 1141.25 876.819 1140.12 876.984 1138.15 C 879.097 1136.19 882.122 1135.94 885.006 1135.71 C 901.365 1134.46 910.271 1118.37 912.247 1103.51 C 913.7 1092.59 913.209 1078.62 913.237 1067.05 L 913.134 1005.75 C 913.068 983.931 914.189 954.501 911.817 933.615 C 907.972 917.618 901.311 907.934 884.395 905.758 C 880.842 905.301 877.914 904.673 875.336 902.649 L 876.596 898.731 C 896.949 897.968 927.774 897.544 948.04 898.505 C 949.002 901.214 950.283 905.17 951.411 907.683 C 953.144 911.876 954.128 914.79 956.174 918.947 C 957.939 924.642 960.89 930.716 962.939 936.979 L 965.551 944.862 L 966.273 945.663 C 966.635 946.38 966.997 947.097 967.359 947.814 C 968.684 951.984 969.679 954.313 971.235 958.272 C 971.705 959.685 971.935 960.375 972.52 961.714 C 977.788 973.289 983.751 989.838 988.313 1002.03 C 989.05 1004.77 989.062 1005.31 990.312 1007.91 C 992.082 1012.27 993.685 1016.71 995.117 1021.2 C 998.082 1029.32 1006.75 1049.09 1008.19 1056.22 C 1008.99 1057.86 1009.77 1059.51 1010.54 1061.16 C 1011.5 1063.87 1012.95 1068.47 1014.35 1070.73 C 1016.83 1076.87 1020.56 1087.02 1022.82 1093.39 C 1026.47 1085.83 1029.86 1079.2 1032.55 1071.09 L 1033.21 1069.2 C 1034.82 1066.54 1034.74 1066.21 1035.71 1063.29 C 1037.74 1058.26 1039.05 1055.76 1040.48 1050.28 C 1042.04 1047.16 1043.58 1042.28 1044.8 1038.86 C 1047.03 1033.66 1050.01 1026.23 1051.7 1021.01 C 1054.06 1017.22 1063.54 992.519 1065.7 987.087 L 1100.34 898.611 z" fill="currentColor" transform="translate(0,0)"></path>















































<path d="M 839.428 1173.78 C 843.67 1168.66 845.09 1176.68 846.288 1179.04 L 844.91 1180.84 C 844.577 1180.44 844.244 1180.04 843.911 1179.63 C 842.99 1176.18 842.276 1176.19 839.428 1173.78 z" fill="currentColor" transform="translate(0,0)"></path>

<path d="M 841.33 1196.52 C 846.909 1200.83 849.053 1203.62 853.272 1209.04 C 855.103 1211.77 856.546 1213.89 858.164 1216.76 L 856.29 1217.5 C 852.713 1210.65 847.984 1205.19 842.257 1200.05 L 839.376 1198.26 L 841.33 1196.52 z" fill="currentColor" transform="translate(0,0)"></path>
<path d="M 841.33 1196.52 L 842.257 1200.05 L 839.376 1198.26 L 841.33 1196.52 z" fill="currentColor" transform="translate(0,0)"></path>
<path d="M 1179.97 1223.94 C 1185.03 1223.03 1185.43 1222.68 1190.44 1223.08 C 1186.06 1224.37 1184.71 1224.04 1179.97 1223.94 z" fill="currentColor" transform="translate(0,0)"></path>


<path d="M 716.632 936.729 C 717.187 932.686 716.07 929.387 715.621 925.414 C 712.989 902.17 718.521 883.031 739.345 869.814 C 742.826 883.971 744.386 896.002 739.148 909.957 C 737.718 913.768 735.63 918.992 735.071 922.837 C 734.423 926.509 730.125 934.354 728.298 938.23 C 742.116 930.295 744.815 926.5 761.035 928.287 C 764.87 928.483 766.79 928.087 770.633 927.54 C 764.107 947.377 760.105 951.778 744.568 966.016 L 743.569 966.396 C 734.123 970.061 732.523 971.827 721.253 974.727 C 720.993 979.746 719.774 1013.86 722.524 1016.84 C 723.732 1016.6 724.122 1012.75 724.321 1012.01 C 729.24 993.685 748.944 982.047 766.161 976.925 L 768.674 976.182 L 771.443 976.772 C 772.79 982.011 765.324 998.011 762.553 1003.3 C 754.633 1018.4 741.072 1021.45 728.626 1030.61 C 726.442 1032.22 729.471 1051.26 730.383 1054.45 C 731.762 1054.83 738.996 1058.23 742.076 1059.29 C 746.159 1045.95 753.301 1039.09 762.635 1028.88 C 767.447 1023.61 774.497 1023.82 781.166 1020.37 C 779.245 1038.01 777.736 1055.82 766.389 1070.17 C 761.095 1076.87 758.718 1079.61 754.347 1086.95 C 750.784 1088.75 751.25 1092.91 752.829 1095.99 C 754 1098.3 755.48 1100.45 757.229 1102.36 C 763.996 1112.03 772.955 1118.65 777.726 1126.15 C 777.034 1129.43 777.547 1127.87 774.788 1130.75 C 766.384 1130.26 744.175 1099.7 738.279 1091.79 C 726.276 1104.89 718.798 1110.45 699.929 1112.78 C 693.065 1113.63 668.33 1112.1 664.245 1108.71 C 665.193 1105.04 669.536 1101.92 672.476 1099.55 C 697.33 1079.53 724.111 1089.2 731.801 1082.51 C 731.17 1078.23 726.139 1068.12 724.089 1063.64 C 709.46 1067.23 693.379 1070.24 679.837 1062.34 L 681.911 1060.94 C 688.021 1064.27 705.704 1065.32 710.548 1062.97 C 719.306 1058.72 685.832 1049.79 682.961 1048.48 C 683.862 1045.94 687.016 1043.64 685.993 1041.62 C 675.881 1040.3 669.237 1040.64 659.479 1042.71 C 666.732 1050.67 668.835 1051.89 677.088 1058.2 L 674.452 1059.58 C 666.743 1053.93 659.461 1047.98 652.782 1041.14 C 670.072 1037.97 686.992 1036.22 703.835 1042.55 C 715.971 1041.56 711.183 1048.85 717.659 1038.84 C 716.546 1034.4 716.393 1026.84 714.04 1024.2 C 710.702 1023.87 710.251 1023.9 707.171 1022.6 C 676.755 1009.71 671.59 1003.82 659.292 974.136 C 678.804 977.59 688.005 980.331 703.316 993.523 C 707.161 998.564 709.245 999.51 711.541 1005.7 C 711.623 1007.06 711.497 1017.77 713.409 1017.74 C 714.84 1015.62 713.544 1008.53 712.917 1005.94 C 713.039 995.461 711.511 984.417 714.054 974.084 L 714.47 972.272 C 713.121 965.301 701.73 965.626 696.205 961.316 C 679.946 948.631 672.107 932.965 665.863 913.829 C 685.264 922.132 691.295 922.102 707.212 937.302 C 710.215 943.172 712.678 948.411 715.504 954.288 C 716.614 946.173 717.301 945 716.632 936.729 z M 738.053 1074.04 C 742.513 1082.47 741.393 1078.02 740.93 1071.66 L 738.053 1074.04 z M 761.618 1050.87 C 759.589 1054.28 758.89 1055.73 757.291 1059.33 C 763.024 1057.03 764.738 1056.69 761.618 1050.87 z M 726.332 886.122 L 726.456 888.058 C 726.712 892.353 724.823 892.531 728.161 895.282 C 729.694 895.377 730.302 895.513 731.837 895.823 C 736.413 895.163 735.996 893.942 738.902 890.067 C 736.31 879.989 734.524 874.604 726.332 886.122 z M 683.804 1095.3 C 680.86 1096.56 678.753 1097.97 676.083 1099.78 L 677.465 1101.03 C 680.023 1103.45 683.491 1103.98 686.913 1103.52 L 690.843 1099.87 C 693.975 1100.94 698.778 1098.89 701.613 1097.55 C 706.536 1095.97 711.326 1095.56 715.527 1092.86 L 713.594 1090.48 C 713.488 1089.52 713.849 1089.44 714.172 1088.59 L 713.938 1088.34 C 710.291 1087.29 706.11 1087.83 702.407 1088.28 C 696.107 1089.91 689.366 1091.92 683.804 1095.3 z M 678.49 936.917 C 679.435 939.086 679.562 939.039 681.086 941.138 C 681.412 938.74 681.469 938.284 682.14 935.942 C 683.086 935.759 683.657 935.383 684.59 934.934 C 684.488 934.264 683.817 932.201 684.691 931.637 C 685.633 931.611 688.337 934.435 689.295 935.249 L 689.935 932.11 C 691.124 930.501 691.481 929.793 692.982 928.557 C 688.736 925.82 684.843 924.25 680.279 922.224 L 678.65 921.483 C 669.974 919.518 669.241 916.812 674.42 928.539 C 675.605 932.541 676.308 933.429 678.49 936.917 z M 752.392 936.477 L 751.727 937.978 C 749.369 942.948 752.619 941.91 756.496 941.93 C 759.501 936.818 757.322 937.224 752.392 936.477 z M 671.809 994.075 C 674.127 996.597 676.56 1000.24 678.808 1003.05 C 680.57 1005.43 682.616 1007.05 684.874 1008.92 C 686.845 1003.96 686.968 1004.25 690.061 999.437 C 687.659 997.141 687.128 996.811 684.343 995.055 C 681.518 992.735 679.446 993.03 682.027 990.831 C 683.529 984.956 670.157 976.338 671.809 994.075 z M 721.284 936.449 C 721.631 935.624 721.996 934.806 722.378 933.996 C 724.537 929.393 720.981 928.77 719.801 935.142 C 718.851 939.961 718.944 944.184 717.867 949.401 L 720.852 949.48 C 721.793 944.626 720.746 942.004 721.284 936.449 z M 756.838 1007.13 C 750.434 1008.43 747.386 1008.71 747.27 1016.88 C 751.489 1013.54 753.423 1011.39 756.838 1007.13 z M 709.998 1008.27 C 707.883 1008.39 705.766 1008.49 703.649 1008.56 C 709.645 1015.64 709.62 1017.43 709.998 1008.27 z M 753.36 993.848 L 753.974 994.192 C 762.343 987.65 756.714 980.613 753.36 993.848 z M 777.111 1034.95 L 775.248 1034.46 C 766.132 1031.91 761.014 1034.95 775.919 1039.7 C 776.328 1038.12 776.725 1036.54 777.111 1034.95 z" fill="currentColor" transform="translate(0,0)"></path>







<path d="M 747.047 1075.35 C 748.559 1070.1 761.217 1044.79 764.999 1041.94 C 765.102 1042.15 765.205 1042.37 765.308 1042.58 C 765.402 1044.91 762.801 1048.82 761.618 1050.87 C 759.589 1054.28 758.89 1055.73 757.291 1059.33 C 754.729 1063.11 750.986 1071.49 748.268 1076.09 L 747.047 1075.35 z" fill="currentColor" transform="translate(0,0)"></path>








<path d="M 716.804 920.138 C 715.525 915.939 714.874 914.332 716.372 910.283 C 717.208 914.732 716.985 915.56 716.804 920.138 z" fill="currentColor" transform="translate(0,0)"></path>











<path d="M 719.801 935.142 L 721.284 936.449 C 720.746 942.004 721.793 944.626 720.852 949.48 L 717.867 949.401 C 718.944 944.184 718.851 939.961 719.801 935.142 z" fill="currentColor" fill-opacity="0.752941" transform="translate(0,0)"></path>



<path d="M 719.801 935.142 C 720.981 928.77 724.537 929.393 722.378 933.996 C 721.996 934.806 721.631 935.624 721.284 936.449 L 719.801 935.142 z" fill="currentColor" fill-opacity="0.988235" transform="translate(0,0)"></path>
<path d="M 1372.13 978.139 C 1378.44 976.15 1383.88 974.939 1390.31 973.484 C 1379.81 999.092 1369.8 1011.19 1343.04 1023.45 C 1342.26 1023.81 1341.63 1023.8 1340.8 1023.9 L 1339.31 1024.08 L 1338.1 1024.21 C 1337.43 1025.29 1337.1 1025.62 1336.71 1026.8 C 1336.93 1041.7 1335.34 1039.07 1350.85 1040.21 C 1362 1041.3 1380.71 1036.45 1391.11 1041.23 C 1395.48 1048.48 1372.27 1060.66 1366.65 1062.78 C 1355.99 1066.8 1340.57 1069.07 1329.74 1065.04 C 1326.31 1069.31 1322.39 1075.53 1322.13 1081.08 C 1322.06 1082.71 1327.34 1083.13 1330.02 1084.77 C 1354.82 1084.38 1367.19 1092.6 1385.92 1108.09 C 1358.58 1116.68 1329.54 1117.29 1310.57 1091.89 C 1301.67 1105.13 1288.92 1123.32 1274.61 1131.39 C 1272.23 1129.56 1272.51 1129.08 1271.23 1126.03 C 1276.73 1116.85 1294.99 1105.53 1301.55 1089.83 C 1300.91 1088.84 1287.09 1076.1 1283.62 1073.27 C 1275.74 1066.85 1263.44 1026.08 1270.11 1020.84 L 1272.05 1020.48 C 1283.92 1018.03 1284.58 1020.45 1291.66 1029.86 C 1295.62 1033.56 1303.22 1041.3 1300.79 1047.05 C 1302.23 1051.03 1304.21 1053.96 1306.03 1059.36 L 1308.38 1056.1 C 1311.2 1060.2 1311.79 1060.89 1316.65 1061.66 C 1317.36 1059.77 1318.21 1058 1319.12 1056.2 C 1316.76 1052.28 1315.58 1050.11 1313.92 1045.64 C 1316.09 1043.06 1316.72 1042.23 1319.34 1040.1 C 1320.96 1040.34 1322.57 1040.56 1324.19 1040.76 C 1324.87 1037.75 1325.22 1034.7 1326.01 1031.71 C 1327.08 1032.91 1327.27 1032.5 1328.17 1031.33 C 1328.67 1028.21 1330.88 1021.87 1330.1 1020 L 1333.23 1019.84 C 1332.62 1004.22 1335.33 996.316 1333.58 976.986 C 1334.49 976.694 1334.91 976.54 1335.79 976.361 C 1335.98 979.383 1336.47 981.183 1336.74 983.978 C 1345.69 990.853 1340.07 983.428 1350.97 983.209 C 1355.33 983.121 1355.84 982.162 1360.51 982.95 L 1360.98 983.025 C 1363.63 982.184 1369.58 979.507 1372.13 978.139 z M 1303.27 1092.87 L 1304.84 1097.19 L 1307.89 1092.47 L 1304.54 1090.91 L 1303.27 1092.87 z M 1365.73 988.153 C 1369.05 988.769 1369.02 987.576 1370.61 990.324 C 1378.8 987.921 1372.25 980.231 1365.73 988.153 z M 1368.76 1049.17 C 1365.53 1051.11 1364.16 1051.01 1360.54 1052.18 C 1371.93 1054.74 1372.56 1049.36 1381.56 1041.52 C 1376.04 1041.09 1369.45 1041.38 1363.8 1041.39 C 1370.55 1041.57 1372.02 1041.88 1368.76 1049.17 z M 1338.24 1004.66 C 1337.08 1001.79 1337.02 999.592 1336.45 996.501 C 1336.24 998.575 1335.39 1008.82 1336.34 1010.32 L 1336.5 1010.4 C 1337.71 1009.52 1337.94 1006.61 1338.16 1005.18 L 1338.24 1004.66 z M 1343.22 1097.66 C 1341.69 1094.11 1346.83 1090.66 1349.84 1089.17 C 1344.36 1088.34 1339.76 1087.27 1334.1 1087.39 C 1334.8 1087.61 1335.5 1087.83 1336.2 1088.05 C 1340.2 1089.18 1336.51 1090.65 1337.2 1092.98 C 1337.57 1094.25 1338.78 1093.76 1339.14 1094.76 C 1339.32 1095.39 1338.53 1096.14 1338.24 1096.63 C 1339.85 1097.1 1341.56 1097.35 1343.22 1097.66 z M 1300.43 1073.88 C 1302.4 1077.14 1303.33 1080.44 1304.04 1074.1 L 1300.43 1073.88 z M 1342.23 1056.26 C 1333.98 1067.7 1343.81 1063.94 1346.93 1055.49 C 1345.36 1055.76 1343.81 1056.03 1342.23 1056.26 z M 1334.06 1054.6 C 1332.49 1055.59 1330.08 1057.55 1329.55 1059.41 L 1329.86 1059.98 L 1330.49 1060.09 C 1333.68 1057.17 1335.44 1056.6 1339.41 1054.82 C 1337.63 1054.72 1335.85 1054.65 1334.06 1054.6 z M 1363.31 1094.75 L 1362.65 1096.24 C 1361.55 1098.65 1359.47 1099.28 1359.55 1102.2 C 1361.92 1104.7 1366.29 1098.79 1367.46 1097.33 C 1366.07 1096.49 1364.68 1095.63 1363.31 1094.75 z M 1271.88 1032.64 C 1272.18 1036.28 1272.73 1039.27 1273.21 1042.84 C 1274.1 1036.64 1279.65 1038.41 1271.88 1032.64 z M 1288.61 1053.22 C 1288.07 1052.23 1287.98 1052.2 1287.2 1051.14 C 1286.21 1052.86 1280.8 1059.82 1281.53 1061.26 C 1284.54 1062.21 1287.22 1055.13 1288.61 1053.22 z" fill="currentColor" transform="translate(0,0)"></path>













<path d="M 1362.29 993.14 C 1364.65 990.856 1365.24 991.273 1365.73 988.153 C 1369.05 988.769 1369.02 987.576 1370.61 990.324 C 1366.83 990.598 1365.96 992.574 1363 995.068 L 1362.29 993.14 z" fill="currentColor" transform="translate(0,0)"></path>










<path d="M 1334.06 1054.6 C 1335.85 1054.65 1337.63 1054.72 1339.41 1054.82 C 1335.44 1056.6 1333.68 1057.17 1330.49 1060.09 L 1329.86 1059.98 L 1329.55 1059.41 C 1330.08 1057.55 1332.49 1055.59 1334.06 1054.6 z" fill="currentColor" fill-opacity="0.988235" transform="translate(0,0)"></path>

<path d="M 1327.35 945.495 C 1318.13 911.928 1298.14 916.825 1309.41 869.665 C 1328.24 884.227 1337.09 899.292 1334.63 923.941 C 1335.02 938.219 1336.02 932.195 1343.62 933.127 C 1357.56 922.441 1365.54 919.682 1382.44 914.18 C 1373.89 939.922 1368.67 948.681 1347.04 964.716 C 1343.75 965.017 1341.15 965.028 1337.9 965.67 C 1338.9 969.807 1336.8 969.061 1336.13 973.909 L 1335.95 975.133 L 1335.79 976.361 C 1334.91 976.54 1334.49 976.694 1333.58 976.986 C 1335.33 996.316 1332.62 1004.22 1333.23 1019.84 L 1330.1 1020 C 1328.02 1018.05 1327.43 1017.39 1326.14 1014.96 L 1325.8 1013.68 C 1323.77 1008.61 1321.89 1006.28 1319.97 1001.91 C 1321.26 1001.6 1324.55 1001.17 1325.55 1000.45 C 1330.95 996.585 1325.59 990.02 1327.21 985.016 C 1327.98 982.642 1328.11 982.069 1328.28 979.722 C 1328.19 978.809 1328.09 977.973 1328.06 977.055 C 1322.4 972.256 1322.51 976.959 1319.34 972.426 C 1317.82 970.257 1308.6 969.531 1305.84 969.706 C 1295.55 965.909 1281.57 937.491 1278.49 926.818 C 1296.97 931.441 1301.21 931.451 1316.59 945.361 C 1317.25 946.219 1328.22 960.635 1327.54 960.259 L 1327.57 960.216 C 1327.49 960.076 1327.42 959.935 1327.35 959.795 L 1328.64 958.696 C 1328.86 952.674 1328.65 951.727 1327.35 945.495 z M 1320.31 892.107 C 1322.35 891.521 1323.55 891.632 1325.53 891.232 C 1315.92 874.748 1308.7 870.572 1309.2 893.808 C 1309.18 899.879 1310.19 907.81 1313.87 912.802 C 1314.89 914.852 1320.37 926.778 1323.04 922.035 C 1325.39 917.868 1322.33 910.07 1321.23 905.752 C 1320.5 899.8 1319.47 897.946 1320.31 892.107 z M 1292.13 939.136 C 1292.11 939.423 1292.1 939.711 1292.08 939.998 L 1292.17 940.093 C 1292.55 940.079 1292.31 940.115 1292.96 939.919 C 1292.99 939.492 1293.08 939.25 1292.92 938.933 C 1292.66 939.001 1292.39 939.069 1292.13 939.136 z M 1326.64 913.027 C 1326.5 915.208 1326.38 916.44 1326.46 918.619 C 1327.06 918.023 1327.66 917.426 1328.25 916.83 C 1328.52 916.734 1328.92 916.175 1329.3 916.294 C 1329.85 916.469 1330.24 918.088 1330.33 918.348 C 1330.66 919.375 1331.42 920.171 1332.05 920.996 C 1332.22 916.856 1332.11 912.229 1331.88 908.083 C 1329.96 912.604 1330.87 913.74 1326.64 913.027 z" fill="currentColor" transform="translate(0,0)"></path>



<path d="M 1333.31 972.386 C 1334.12 972.972 1333.85 972.858 1334.22 972.962 C 1335.94 971.304 1332.22 967.59 1337.9 965.67 C 1338.9 969.807 1336.8 969.061 1336.13 973.909 L 1335.95 975.133 L 1335.79 976.361 C 1334.91 976.54 1334.49 976.694 1333.58 976.986 C 1333.06 974.837 1333.12 974.61 1333.31 972.386 z" fill="currentColor" transform="translate(0,0)"></path>


<path d="M 1291.81 939.286 C 1300.32 945.647 1304.47 949.182 1312.22 956.307 L 1310.02 957.13 C 1301.84 950.212 1298.41 947.668 1291.81 939.286 z" fill="currentColor" transform="translate(0,0)"></path>







<path d="M 1287.51 1007.55 C 1285.08 1006.12 1285.04 1003.04 1283.68 1000.63 C 1282.52 998.573 1272.17 974.163 1279.5 976.231 C 1283.51 977.364 1287.04 975.948 1290.75 975.466 C 1295.75 978.111 1300.21 980.562 1304.61 984.112 C 1304.4 986.617 1307.6 988.971 1309.42 990.399 C 1315.01 995.051 1315.87 996.041 1319.97 1001.91 C 1321.89 1006.28 1323.77 1008.61 1325.8 1013.68 L 1326.14 1014.96 C 1327.43 1017.39 1328.02 1018.05 1330.1 1020 C 1330.88 1021.87 1328.67 1028.21 1328.17 1031.33 C 1327.27 1032.5 1327.08 1032.91 1326.01 1031.71 C 1322.24 1027.38 1322.31 1027.53 1316.93 1026.02 C 1315.34 1028.11 1301.5 1028.28 1298.54 1028.21 C 1297.71 1027.9 1296.89 1027.59 1296.06 1027.3 C 1293.91 1016.1 1288.64 1016.16 1287.96 1010.98 L 1287.51 1007.55 z M 1322.22 1023.1 L 1321.86 1022.33 C 1323.96 1021.55 1324.7 1021.98 1324.1 1019.72 L 1324.04 1016.54 L 1323.48 1014.8 C 1316.73 992.837 1298.24 985.883 1278.77 978.892 C 1285.09 999.742 1293.75 1020.22 1317.6 1023.54 C 1320 1023.87 1319.94 1023.81 1322.22 1023.1 z" fill="currentColor" transform="translate(0,0)"></path>


<path d="M 1292.88 989.547 L 1294.56 990.653 C 1303.06 996.1 1317.39 1016.6 1324.1 1019.72 C 1324.7 1021.98 1323.96 1021.55 1321.86 1022.33 C 1319.68 1020.17 1318.44 1018.68 1316.52 1016.29 C 1315.97 1015.8 1315.97 1015.84 1315.62 1015.19 C 1313.98 1013.53 1312.33 1011.88 1310.67 1010.24 C 1309.89 1009.36 1309.81 1009.26 1308.89 1008.52 C 1303.64 1001.99 1298.29 996.301 1292.88 989.547 z" fill="currentColor" transform="translate(0,0)"></path>



<path d="M 1325.8 1013.68 L 1326.14 1014.96 C 1327.43 1017.39 1328.02 1018.05 1330.1 1020 C 1330.88 1021.87 1328.67 1028.21 1328.17 1031.33 C 1327.27 1032.5 1327.08 1032.91 1326.01 1031.71 C 1322.24 1027.38 1322.31 1027.53 1316.93 1026.02 C 1318.32 1025.18 1318.58 1024.79 1320.05 1025.03 C 1320.71 1025.13 1321.02 1025.25 1321.61 1025.24 C 1321.84 1025.23 1322.13 1025.21 1322.28 1024.99 C 1322.59 1024.52 1322.25 1023.37 1322.22 1023.1 L 1321.86 1022.33 C 1323.96 1021.55 1324.7 1021.98 1324.1 1019.72 L 1324.04 1016.54 L 1325.8 1013.68 z" fill="currentColor" transform="translate(0,0)"></path>












<path d="M 711.541 1005.7 L 712.917 1005.94 C 713.544 1008.53 714.84 1015.62 713.409 1017.74 C 711.497 1017.77 711.623 1007.06 711.541 1005.7 z" fill="currentColor" fill-opacity="0.960784" transform="translate(0,0)"></path>
<path d="M 679.057 1059.3 C 680.044 1059.85 680.949 1060.35 681.911 1060.94 L 679.837 1062.34 L 677.883 1061.35 L 679.057 1059.3 z" fill="currentColor" fill-opacity="0.866667" transform="translate(0,0)"></path>
<path d="M 677.088 1058.2 L 678.219 1058.94 L 676.983 1060.89 C 676.139 1060.45 675.296 1060.01 674.452 1059.58 L 677.088 1058.2 z" fill="currentColor" fill-opacity="0.768627" transform="translate(0,0)"></path>
<metadata><recraft-signature>{"signed_by": "recraft", "signature_b64": "/VX58mCJ30Q5qj5ZhLCKkDkkxgEgvpOQALssX1JAk2qucM4HSGPNibGd81uqtVDTH6LysMMeULhtOZP6iafKBg==", "signing_algo": "Ed25519", "generation_timestamp": 1782620094, "identifier": "f8424615-c1d7-429c-aff0-6c73daed29a7"}</recraft-signature></metadata></svg>