<svg xmlns="http://www.w3.org/2000/svg" preserveAspectRatio="xMidYMid meet" style="display: block;" version="1.1" viewBox="0 0 2048 2048">
<path d="M 537.467 270.727 C 564.571 274.911 587.836 279.595 613.862 288.773 C 776.044 345.963 915.793 506.519 988.832 656.983 C 999.093 657.649 1050.85 658.377 1059.44 657.341 C 1098.27 580.037 1138.3 520.256 1197.43 456.074 C 1263.91 383.914 1338.14 323.822 1431.47 290.476 C 1455.56 281.867 1488.34 272.586 1513.97 271.355 L 1514.35 371.433 C 1538.4 372.867 1574.92 371.573 1600.46 371.769 C 1600.27 400.349 1600.47 428.93 1601.05 457.505 C 1626.88 458.577 1656.01 457.773 1682.29 458.055 C 1683.52 481.917 1682.55 514.634 1682.64 539.37 C 1707.82 545.549 1738.1 555.615 1763.99 562.817 C 1764.69 615.207 1764.14 668.722 1764.13 721.2 L 1764.11 1018.2 L 1764.12 1621.19 C 1746.57 1615.81 1729.97 1610.62 1712.24 1605.64 C 1520.95 1557.04 1329.04 1555.62 1139.12 1613.72 C 1136.69 1635.77 1132.96 1653.19 1118.52 1671.44 C 1079.71 1720.55 993.792 1724.9 946.253 1686.81 C 921.855 1667.26 914.439 1643.04 911.819 1613.37 C 896.805 1607.54 863.81 1599.95 848.056 1596.22 C 693.229 1560.78 532.388 1560.83 377.584 1596.38 C 347.221 1603.45 315.432 1611.01 286.571 1622.99 C 287.583 1580.89 286.621 1534.85 286.537 1492.5 L 286.525 1286.94 L 286.909 563.306 C 303.759 556.401 349.36 544.039 368.952 538.171 L 369.146 458.263 C 394.885 457.086 423.632 457.975 449.452 458.081 C 450.954 433.115 449.567 397.866 449.755 371.619 C 477.862 370.497 508.728 373.192 537.173 371.258 C 538.484 339.971 536.995 302.836 537.467 270.727 z M 1080.08 791.998 C 1105 772.718 1119.03 776.634 1149.06 776.519 L 1218.55 776.405 L 1333.92 776.381 C 1354.06 776.377 1379.12 775.773 1398.99 776.775 C 1399.07 811.414 1399.62 847.504 1398.97 882.022 C 1352.04 880.988 1304.7 882.096 1257.74 881.471 C 1207.14 880.796 1155.77 883.652 1105.38 879.739 C 1096.35 879.038 1084.64 869.549 1078.44 863.2 C 1079.42 939.156 1078.81 1016.44 1078.98 1092.5 L 1079.05 1447.7 C 1094.95 1418.56 1104.74 1395.32 1123.34 1366.64 C 1193 1259.2 1288.28 1162.29 1403.04 1103.66 C 1428.05 1090.89 1448.67 1081.16 1475.68 1073.18 C 1480.12 1071.91 1484.54 1070.59 1488.95 1069.2 L 1488.93 478.141 L 1488.78 346.31 C 1488.76 339.688 1488.95 304.85 1488.08 301.779 L 1487.68 301.394 C 1469.08 304.322 1446.43 312.113 1428.58 318.703 C 1315.34 360.522 1219.99 458.779 1149.42 554.316 C 1127.42 584.09 1093.82 638.274 1080.73 673.493 C 1079.31 677.31 1079.72 707.339 1079.71 713.489 C 1079.54 739.659 1079.66 765.831 1080.08 791.998 z M 563.051 1069.4 C 686.507 1107.79 779.973 1183.72 863.457 1280.65 C 885.782 1306.4 906.802 1333.26 926.44 1361.12 C 935.636 1374.29 944.175 1387.91 952.025 1401.92 C 957.693 1412.08 964.101 1425.21 970.227 1434.61 C 971.204 1410.13 970.32 1382.73 970.322 1358 L 969.628 1183.73 L 969.572 975.302 C 969.667 946.328 970.645 916.662 970.313 887.813 C 972.314 875.148 968.866 875.871 967.255 886.812 C 931.926 983.16 835.15 1033.19 737.464 998.104 C 644.667 964.774 598.291 857.255 633.333 766.586 C 686.239 629.694 873.529 613.625 949.692 738.4 C 956.184 749.037 960.766 760.067 966.667 770.748 C 968.045 761.864 968.598 675.804 966.828 671.161 C 953.815 637.036 916.547 576.542 894.37 546.835 C 821.875 449.726 727.21 356.893 611.339 315.028 C 597.946 310.188 576.93 302.736 563.37 300.175 C 562.448 336.927 563.089 375.989 563.08 412.87 L 562.994 616.572 C 562.897 766.721 561.368 919.384 563.051 1069.4 z M 1514.1 1089.26 C 1489.16 1095.29 1464.76 1102.47 1441.12 1112.62 C 1318.56 1165.23 1205.74 1280.43 1137.03 1392.99 C 1127.35 1408.8 1118.82 1425.29 1111.49 1442.32 C 1120.93 1431.22 1130.14 1420.02 1140.11 1409.38 C 1228.55 1313.82 1347.66 1239.09 1474.69 1206.41 C 1508.92 1197.6 1540.81 1195.54 1575.56 1191.97 C 1576.72 1160.35 1576.06 1124.61 1576.1 1092.78 L 1576.17 894.791 L 1576.15 570 C 1576.05 512.988 1577.01 453.069 1575.8 396.326 C 1556.81 395.89 1533.11 395.65 1514.11 396.33 L 1514.19 904.222 C 1513.91 943.407 1513.89 982.594 1514.13 1021.78 C 1514.23 1042.36 1515.23 1069.36 1514.1 1089.26 z M 475.143 1192.78 C 500.636 1194.11 526.423 1196.19 551.552 1201.17 C 699.416 1230.49 833.303 1317.61 933.558 1428.43 C 935.986 1431.12 938.168 1433.98 940.357 1436.84 L 941.156 1437.87 L 941.627 1438.5 L 943.264 1438.28 C 941.375 1430.68 922.156 1399.6 916.998 1392.05 C 849.956 1293.96 767.006 1201.69 664.212 1140.43 C 624.439 1116.72 582.129 1097.7 536.999 1089.62 L 536.969 605.526 L 537.049 467.413 C 537.085 445.066 537.849 418.347 537.122 396.383 C 518.84 395.691 497.09 395.996 478.646 396.4 L 475.611 396.987 C 474.487 400.912 475.056 448.079 475.077 455.988 L 475 586.599 L 475.025 994.609 C 475.064 1059.83 474.006 1127.9 475.143 1192.78 z M 312.041 582.4 L 311.828 1155.16 L 311.864 1357.09 C 311.833 1395.27 310.853 1437.72 312.268 1475.49 C 324.716 1466.97 338.026 1457.73 351.534 1451.13 C 455.942 1400.13 586.81 1390.32 699.511 1411.49 C 748.403 1420.34 796.024 1435.17 841.307 1455.62 C 863.107 1465.57 883.766 1475.86 904.434 1487.99 C 908.42 1490.32 913.035 1492.94 917.146 1494.94 C 853.481 1424.07 726.248 1371.56 634.682 1351.78 C 599.396 1344.3 563.553 1339.74 527.517 1338.15 C 483.75 1335.83 408.882 1338.61 368.901 1355.93 L 368.631 838.341 L 368.856 649.055 C 368.809 623.471 369.836 592.016 368.769 567.125 L 367.988 566.395 C 354.45 568.637 325.453 577.524 312.041 582.4 z M 1682.92 1354.74 C 1598.5 1329.44 1493.83 1333.48 1408.5 1352.96 C 1314.86 1374.34 1200.79 1423.28 1136.4 1497.27 C 1159.73 1482.23 1184.05 1468.79 1209.2 1457.03 C 1372.93 1385.4 1582.26 1373.26 1737.03 1473.61 C 1739.47 1450.54 1737.88 1401.86 1737.86 1376.37 L 1737.96 1195.86 L 1738.03 581.63 C 1720.62 576.346 1699.68 571.197 1683.15 565.717 L 1682.92 1354.74 z M 331.349 1496.26 C 359.172 1489.87 384.375 1481.88 413.067 1476.08 C 487.017 1460.98 562.66 1455.87 637.969 1460.9 C 663.955 1462.63 686.09 1465.94 711.4 1468.59 C 758.703 1477.11 801.866 1486.59 847.519 1502.91 C 861.613 1508.04 875.557 1513.56 889.335 1519.48 C 896.989 1522.69 907.855 1527.68 915.461 1529.8 C 904.069 1518.16 877.853 1502.29 863.48 1494.6 C 783.393 1451.79 685.482 1428.06 594.909 1427.02 C 582.048 1426.85 569.184 1427.03 556.331 1427.55 C 490.504 1429.79 380.959 1450.06 331.349 1496.26 z M 1142.4 1528.59 C 1215.87 1495.73 1291.2 1472.81 1371.61 1464.65 C 1381.37 1463.65 1392.32 1462.26 1402 1461.93 C 1510.53 1453.78 1619.64 1465.67 1723.87 1497 C 1658.13 1439.84 1519.91 1422.14 1436 1427.56 C 1341.46 1431.49 1215.46 1466.75 1142.4 1528.59 z M 1063.14 833.591 L 1063.4 821.188 C 1042.29 821.32 998.683 824.687 979.51 819.016 C 976.623 818.162 957.085 802.982 947.798 798.836 C 937.274 755.314 915.796 725.908 877.964 700.608 C 855.849 685.818 810.599 672.851 784.697 678.372 C 642.717 694.809 598.9 865.719 706.699 953.217 C 736.399 977.324 780.987 987.878 818.546 983.229 C 847.903 979.596 872.424 968.209 895.487 949.914 C 928.182 919.788 939.201 898.732 949.77 856.188 C 959.015 850.262 971.361 841.228 979.805 836.238 C 989.959 830.237 1014.29 833.912 1026.15 834.002 C 1038.33 834.095 1050.59 834.296 1063.14 833.591 z M 1091.28 819.634 C 1089.68 845.83 1099.01 856.213 1126.1 856.171 C 1178.9 856.088 1231.69 856.02 1284.5 856.268 C 1293.31 856.233 1302.54 856.348 1311.31 856.15 C 1312.26 839.762 1312.05 817.784 1311.83 801.097 C 1248.08 800.448 1181.88 800.905 1118.08 801.491 C 1106.53 803.284 1100.89 805.912 1093.59 816.137 C 1092.79 817.279 1092.02 818.445 1091.28 819.634 z M 1112.73 1621.74 L 1110.92 1622.11 C 1085.67 1627.35 1060.04 1638.03 1034.84 1644.28 C 1020.34 1647.87 1008.75 1642.1 995.04 1638.32 C 976.128 1633.11 957.312 1626.24 938.311 1621.49 C 944.058 1671.9 994.908 1692.03 1040.08 1685.73 C 1068.19 1681.8 1084.02 1673.55 1102.29 1652.04 C 1108.9 1641.35 1111.28 1634.35 1112.73 1621.74 z M 312.036 1585.93 C 328.071 1582.76 345.597 1577.71 361.682 1573.83 C 383.721 1568.54 405.913 1563.91 428.228 1559.94 C 533.199 1541.02 636.133 1541.55 741.755 1551.89 C 798.561 1557.02 864.149 1573.24 919.427 1588.21 C 927.414 1590.37 964.893 1602.38 969.379 1600.82 C 969.119 1595.27 943.113 1578.41 936.841 1574.3 C 831.265 1505.02 673.371 1478.76 549.686 1486.43 C 469 1489.56 389.089 1503.42 312.062 1527.64 C 311.829 1547.07 311.82 1566.5 312.036 1585.93 z M 998.089 741.407 C 996.988 741.577 994.074 741.658 993.291 742.276 C 992.355 744.554 992.704 790.273 992.94 795.452 C 1011.99 794.994 1032.34 795.99 1051.75 795.431 C 1056.44 795.794 1054.44 786.447 1054.55 782.519 C 1054.95 769.171 1053.85 754.482 1054.61 741.24 C 1037.66 740.803 1015.11 740.888 998.089 741.407 z M 1656.96 1321.69 L 1656.98 483.189 L 1601.23 482.968 C 1599.1 657.092 1600.55 832.802 1600.37 1007.15 L 1600.5 1146.98 C 1600.55 1168.07 1601.63 1196.21 1600.69 1216.42 C 1580.42 1216.98 1556.18 1218.06 1536.14 1220.9 C 1396.43 1240.71 1265.06 1314.96 1168.31 1416.44 C 1161.97 1423.1 1139.83 1446.66 1138.44 1453.84 C 1143.54 1453.52 1168.18 1432.73 1175.04 1427.83 C 1315.73 1331.04 1488.63 1292.96 1656.96 1321.69 z M 1054.94 683.125 C 1034.56 682.705 1013.45 683.177 993.015 683.131 C 992.4 693.946 992.385 704.787 992.969 715.604 C 1013.32 716.267 1034.24 715.443 1054.42 716.182 C 1055.4 705.772 1055.05 693.717 1054.94 683.125 z M 394.956 1322 C 563.635 1291.97 736.34 1333.82 878.335 1428.25 C 892.161 1437.44 908.142 1449.32 920.364 1460.49 C 923.717 1463.21 927.419 1466.35 930.874 1468.85 C 925.503 1457.73 899.932 1429.36 890.501 1419.67 C 816.824 1343.99 724.612 1282.99 624.911 1247.71 C 565.608 1226.72 513.438 1218.29 450.889 1216.73 L 450.11 483.224 C 434.266 482.922 418.416 482.999 402.576 483.456 C 399.091 483.708 396.618 483.118 394.962 485.029 C 394.347 503.41 394.83 522.694 394.719 541.18 C 394.275 584.261 394.203 627.346 394.504 670.428 L 394.792 946.787 L 394.52 1199.62 L 394.717 1282.31 C 394.768 1293.95 394.235 1310.86 394.956 1322 z M 1336.88 801.38 C 1336.17 817.413 1335.99 840.799 1336.69 856.653 L 1373.62 856.493 C 1374.66 852.879 1374.6 808.315 1374.74 801.202 C 1361.74 800.815 1349.67 801.378 1336.88 801.38 z M 1450.93 1485.47 C 1341.08 1488.67 1226.59 1507.9 1131.56 1565.61 C 1118.09 1573.78 1096.31 1586.5 1085.6 1597.44 C 1083.82 1599.28 1082.18 1601.27 1080.7 1603.37 C 1106.8 1596.57 1132.85 1588 1159.22 1580.9 C 1207.13 1567.8 1255.96 1558.31 1305.3 1552.52 C 1321.7 1550.53 1340.12 1548.19 1356.46 1547.83 C 1450.03 1540.46 1544.17 1545.4 1636.46 1562.53 C 1671.8 1569.33 1703.9 1578.96 1737.85 1586 C 1738.81 1567.66 1738.15 1546.44 1738.19 1527.83 C 1652.44 1498.32 1541.76 1483.54 1450.93 1485.47 z M 995.33 859.473 L 995.292 1257.46 C 995.4 1331.73 994.093 1406.06 999.229 1480.09 C 1000.86 1503.6 1000.48 1527.52 1002.63 1551.15 C 1010.02 1551.3 1043.83 1552.78 1047.75 1550.42 L 1047.95 1549.21 C 1049.65 1487.5 1053 1430.13 1053.31 1367.89 L 1052.99 1009.6 C 1052.96 961.153 1051.75 907.571 1052.93 859.555 C 1034.51 859.321 1013.54 858.618 995.33 859.473 z" fill="currentColor" transform="translate(0,0)"></path>
<path d="M 783.661 690.885 C 861.167 682.654 930.611 738.958 938.58 816.491 C 946.549 894.024 890.009 963.278 812.45 970.984 C 735.261 978.653 666.411 922.442 658.48 845.28 C 650.549 768.117 706.526 699.077 783.661 690.885 z M 806.453 946.479 C 870.289 942.099 918.51 886.837 914.204 822.997 C 909.897 759.156 854.69 710.871 790.844 715.105 C 726.896 719.346 678.516 774.661 682.829 838.605 C 687.143 902.549 742.514 950.866 806.453 946.479 z" fill="currentColor" transform="translate(0,0)"></path>
<path d="M 967.255 886.812 C 968.866 875.871 972.314 875.148 970.313 887.813 L 967.255 886.812 z" fill="currentColor" fill-opacity="0.980392" transform="translate(0,0)"></path>
<metadata><recraft-signature>{"signed_by": "recraft", "signature_b64": "7CmsD21y7E8afPHXH/dD3QGU8PZX4cxRQanGprL13+jYh8IrmymgIllUzwThPNxzHbIYPYsr/4N76vmjVFn4Cw==", "signing_algo": "Ed25519", "generation_timestamp": 1782620474, "identifier": "47f460fa-2f3a-42a5-99d8-2c2784d5e6f1"}</recraft-signature></metadata></svg>